<svg xmlns="http://www.w3.org/2000/svg" viewBox="0 0 1680 1150" font-family="Helvetica, Arial, sans-serif">
<rect width="1680" height="1150" fill="#ffffff"/>
<rect x="0" y="0" width="1680" height="78" fill="#0f2a43"/>
<text x="40" y="36" font-size="28" font-weight="bold" fill="#ffffff">PEEK-Bench v2.2 — The Precision Fan (MAPE)</text>
<text x="40" y="62" font-size="15.5" fill="#bcd5ea">updated 2026-08-27 · repeat campaign complete: both leaders carry 3-sweep whiskers · gold = Claude Opus 5 API arm</text>
<path d="M 654.2 840.5 A 190.0 190.0 0 0 1 1025.8 840.5" fill="none" stroke="#e3e8ee" stroke-width="1.4" stroke-dasharray="5 6"/>
<text x="1027.1" y="847.0" font-size="12.5" fill="#9aa7b4">MAPE 8%</text>
<path d="M 545.5 817.4 A 301.0615423166844 301.0615423166844 0 0 1 1134.5 817.4" fill="none" stroke="#e3e8ee" stroke-width="1.4" stroke-dasharray="5 6"/>
<text x="1136.5" y="827.7" font-size="12.5" fill="#9aa7b4">4%</text>
<path d="M 436.9 794.3 A 412.12308463336876 412.12308463336876 0 0 1 1243.1 794.3" fill="none" stroke="#e3e8ee" stroke-width="1.4" stroke-dasharray="5 6"/>
<text x="1245.9" y="808.4" font-size="12.5" fill="#9aa7b4">2%</text>
<path d="M 328.2 771.2 A 523.1846269500531 523.1846269500531 0 0 1 1351.8 771.2" fill="none" stroke="#e3e8ee" stroke-width="1.4" stroke-dasharray="5 6"/>
<text x="1355.2" y="789.1" font-size="12.5" fill="#9aa7b4">1%</text>
<path d="M 219.6 748.1 A 634.2461692667376 634.2461692667376 0 0 1 1460.4 748.1" fill="none" stroke="#e3e8ee" stroke-width="1.4" stroke-dasharray="5 6"/>
<text x="1464.6" y="769.9" font-size="12.5" fill="#9aa7b4">0.5%</text>
<path d="M 656.1 832.1 L 223.1 719.3 A 637.4832073685786 637.4832073685786 0 0 1 241.0 661.9 L 661.5 815.0 A 190 190 0 0 0 656.1 832.1 Z" fill="#e8b33d" fill-opacity="0.88" stroke="#9a7217" stroke-width="1.5"/>
<text x="263.8" y="700.5" font-size="12" font-weight="bold" fill="#ffffff" text-anchor="middle" transform="rotate(-72.7 263.8 700.5)">0.49</text>
<text x="218.0" y="686.2" font-size="13" font-weight="bold" fill="#9a7217" text-anchor="end" transform="rotate(17.3 218.0 686.2)">Claude API (v1 era)</text>
<path d="M 662.9 811.3 L 257.4 653.9 A 624.9098623656114 624.9098623656114 0 0 1 281.3 600.0 L 670.1 794.9 A 190 190 0 0 0 662.9 811.3 Z" fill="#2f9e63" fill-opacity="0.88" stroke="#1c6b41" stroke-width="1.5"/>
<text x="299.8" y="640.5" font-size="12" font-weight="bold" fill="#ffffff" text-anchor="middle" transform="rotate(-66.1 299.8 640.5)">0.53</text>
<line x1="284.4" y1="633.7" x2="251.1" y2="618.9" stroke="#233340" stroke-width="2.6" stroke-linecap="round"/>
<line x1="280.2" y1="643.4" x2="288.8" y2="624.0" stroke="#233340" stroke-width="2.6" stroke-linecap="round"/>
<line x1="246.7" y1="629.2" x2="255.8" y2="608.7" stroke="#233340" stroke-width="2.6" stroke-linecap="round"/>
<text x="246.8" y="617.0" font-size="13" font-weight="bold" fill="#1c6b41" text-anchor="end" transform="rotate(23.9 246.8 617.0)">Qwen3.8-27B ±0.06</text>
<path d="M 672.0 791.3 L 340.2 616.3 A 565.0625637376693 565.0625637376693 0 0 1 367.3 570.4 L 681.1 775.9 A 190 190 0 0 0 672.0 791.3 Z" fill="#2f9e63" fill-opacity="0.88" stroke="#1c6b41" stroke-width="1.5"/>
<text x="382.5" y="610.3" font-size="12" font-weight="bold" fill="#ffffff" text-anchor="middle" transform="rotate(-59.5 382.5 610.3)">0.77</text>
<text x="341.2" y="585.9" font-size="13" font-weight="bold" fill="#1c6b41" text-anchor="end" transform="rotate(30.5 341.2 585.9)">Qwen3.6-35B Q8_0</text>
<path d="M 683.3 772.6 L 383.8 567.3 A 553.0398307416162 553.0398307416162 0 0 1 415.3 525.7 L 694.1 758.3 A 190 190 0 0 0 683.3 772.6 Z" fill="#2f9e63" fill-opacity="0.88" stroke="#1c6b41" stroke-width="1.5"/>
<text x="426.2" y="566.7" font-size="12" font-weight="bold" fill="#ffffff" text-anchor="middle" transform="rotate(-52.9 426.2 566.7)">0.83</text>
<line x1="426.7" y1="567.0" x2="363.9" y2="519.5" stroke="#233340" stroke-width="2.6" stroke-linecap="round"/>
<line x1="421.3" y1="574.3" x2="432.2" y2="559.9" stroke="#233340" stroke-width="2.6" stroke-linecap="round"/>
<line x1="357.6" y1="527.9" x2="370.2" y2="511.2" stroke="#233340" stroke-width="2.6" stroke-linecap="round"/>
<text x="379.9" y="531.7" font-size="13" font-weight="bold" fill="#1c6b41" text-anchor="end" transform="rotate(37.1 379.9 531.7)">Qwen3.6-35B-A3B ±0.20</text>
<path d="M 696.7 755.3 L 447.7 538.6 A 520.0116928443997 520.0116928443997 0 0 1 481.7 503.2 L 709.1 742.3 A 190 190 0 0 0 696.7 755.3 Z" fill="#2f78b8" fill-opacity="0.88" stroke="#1a5182" stroke-width="1.5"/>
<text x="488.9" y="544.0" font-size="12" font-weight="bold" fill="#ffffff" text-anchor="middle" transform="rotate(-46.3 488.9 544.0)">1.02</text>
<line x1="495.9" y1="550.7" x2="420.7" y2="478.8" stroke="#233340" stroke-width="2.6" stroke-linecap="round"/>
<line x1="490.2" y1="556.8" x2="501.7" y2="544.7" stroke="#233340" stroke-width="2.6" stroke-linecap="round"/>
<line x1="413.8" y1="486.1" x2="427.8" y2="471.5" stroke="#233340" stroke-width="2.6" stroke-linecap="round"/>
<text x="447.0" y="503.9" font-size="13" font-weight="bold" fill="#1a5182" text-anchor="end" transform="rotate(43.7 447.0 503.9)">Qwen3.5-9B ±0.32</text>
<path d="M 712.0 739.6 L 540.9 552.0 A 443.9204690085869 443.9204690085869 0 0 1 573.2 525.2 L 725.8 728.2 A 190 190 0 0 0 712.0 739.6 Z" fill="#2f9e63" fill-opacity="0.88" stroke="#1c6b41" stroke-width="1.5"/>
<text x="578.4" y="564.4" font-size="12" font-weight="bold" fill="#ffffff" text-anchor="middle" transform="rotate(-39.7 578.4 564.4)">1.64</text>
<text x="547.8" y="527.4" font-size="13" font-weight="bold" fill="#1c6b41" text-anchor="end" transform="rotate(50.3 547.8 527.4)">Agents-A1-35B</text>
<path d="M 729.0 725.8 L 587.8 529.6 A 431.6977525118342 431.6977525118342 0 0 1 621.9 507.4 L 744.0 716.0 A 190 190 0 0 0 729.0 725.8 Z" fill="#2f9e63" fill-opacity="0.88" stroke="#1c6b41" stroke-width="1.5"/>
<text x="623.1" y="546.6" font-size="12" font-weight="bold" fill="#ffffff" text-anchor="middle" transform="rotate(-33.0 623.1 546.6)">1.77</text>
<text x="597.0" y="506.4" font-size="13" font-weight="bold" fill="#1c6b41" text-anchor="end" transform="rotate(57.0 597.0 506.4)">Gemma4-31B dense</text>
<path d="M 747.5 714.0 L 638.9 519.3 A 412.926233865542 412.926233865542 0 0 1 673.8 502.0 L 763.5 706.1 A 190 190 0 0 0 747.5 714.0 Z" fill="#2f78b8" fill-opacity="0.88" stroke="#1a5182" stroke-width="1.5"/>
<text x="671.3" y="540.7" font-size="12" font-weight="bold" fill="#ffffff" text-anchor="middle" transform="rotate(-26.4 671.3 540.7)">1.99</text>
<line x1="662.0" y1="522.0" x2="649.8" y2="497.4" stroke="#233340" stroke-width="2.6" stroke-linecap="round"/>
<line x1="655.8" y1="525.2" x2="668.3" y2="519.0" stroke="#233340" stroke-width="2.6" stroke-linecap="round"/>
<line x1="643.2" y1="500.8" x2="656.5" y2="494.2" stroke="#233340" stroke-width="2.6" stroke-linecap="round"/>
<text x="645.5" y="488.8" font-size="13" font-weight="bold" fill="#1a5182" text-anchor="end" transform="rotate(63.6 645.5 488.8)">Qwen3.5-4B ±0.17</text>
<path d="M 767.2 704.5 L 687.9 513.4 A 396.85173121172215 396.85173121172215 0 0 1 723.2 500.7 L 784.1 698.4 A 190 190 0 0 0 767.2 704.5 Z" fill="#2f9e63" fill-opacity="0.88" stroke="#1c6b41" stroke-width="1.5"/>
<text x="716.9" y="538.7" font-size="12" font-weight="bold" fill="#ffffff" text-anchor="middle" transform="rotate(-19.8 716.9 538.7)">2.20</text>
<line x1="710.4" y1="520.4" x2="699.9" y2="491.5" stroke="#233340" stroke-width="2.6" stroke-linecap="round"/>
<line x1="704.1" y1="522.7" x2="716.7" y2="518.2" stroke="#233340" stroke-width="2.6" stroke-linecap="round"/>
<line x1="693.2" y1="494.1" x2="706.8" y2="489.2" stroke="#233340" stroke-width="2.6" stroke-linecap="round"/>
<text x="697.3" y="484.1" font-size="13" font-weight="bold" fill="#1c6b41" text-anchor="end" transform="rotate(70.2 697.3 484.1)">Gemma4-26B-A4B MoE ±0.21</text>
<path d="M 787.9 697.3 L 732.7 503.9 A 391.1286965465922 391.1286965465922 0 0 1 768.6 495.4 L 805.3 693.2 A 190 190 0 0 0 787.9 697.3 Z" fill="#2f78b8" fill-opacity="0.88" stroke="#1a5182" stroke-width="1.5"/>
<text x="758.3" y="532.3" font-size="12" font-weight="bold" fill="#ffffff" text-anchor="middle" transform="rotate(-13.2 758.3 532.3)">2.28</text>
<line x1="755.9" y1="522.1" x2="744.3" y2="472.4" stroke="#233340" stroke-width="2.6" stroke-linecap="round"/>
<line x1="749.7" y1="523.6" x2="762.2" y2="520.7" stroke="#233340" stroke-width="2.6" stroke-linecap="round"/>
<line x1="737.2" y1="474.2" x2="751.4" y2="470.8" stroke="#233340" stroke-width="2.6" stroke-linecap="round"/>
<text x="745.1" y="475.9" font-size="13" font-weight="bold" fill="#1a5182" text-anchor="end" transform="rotate(76.8 745.1 475.9)">Gemma4-12BQAT CUDA ±0.36</text>
<path d="M 809.3 692.5 L 783.1 533.1 A 351.4869955044102 351.4869955044102 0 0 1 816.1 529.3 L 827.1 690.4 A 190 190 0 0 0 809.3 692.5 Z" fill="#2f9e63" fill-opacity="0.88" stroke="#1c6b41" stroke-width="1.5"/>
<text x="803.5" y="564.6" font-size="12" font-weight="bold" fill="#ffffff" text-anchor="middle" transform="rotate(-6.6 803.5 564.6)">2.92</text>
<line x1="801.4" y1="546.4" x2="797.5" y2="513.6" stroke="#233340" stroke-width="2.6" stroke-linecap="round"/>
<line x1="795.5" y1="547.1" x2="807.2" y2="545.8" stroke="#233340" stroke-width="2.6" stroke-linecap="round"/>
<line x1="791.2" y1="514.4" x2="804.0" y2="512.9" stroke="#233340" stroke-width="2.6" stroke-linecap="round"/>
<text x="796.8" y="507.0" font-size="13" font-weight="bold" fill="#1c6b41" text-anchor="end" transform="rotate(83.4 796.8 507.0)">Qwen3VL-32B ±0.30</text>
<path d="M 831.0 690.2 L 823.8 537.4 A 342.9394791043005 342.9394791043005 0 0 1 856.2 537.4 L 849.0 690.2 A 190 190 0 0 0 831.0 690.2 Z" fill="#2f9e63" fill-opacity="0.88" stroke="#1c6b41" stroke-width="1.5"/>
<text x="840.0" y="571.1" font-size="12" font-weight="bold" fill="#ffffff" text-anchor="middle" transform="rotate(0.0 840.0 571.1)">3.08</text>
<text x="840.0" y="523.1" font-size="13" font-weight="bold" fill="#1c6b41" text-anchor="start" transform="rotate(-90.0 840.0 523.1)">InternVL3.5-30B(35)</text>
<path d="M 852.9 690.4 L 863.0 542.5 A 338.32459553949593 338.32459553949593 0 0 1 894.8 546.1 L 870.7 692.5 A 190 190 0 0 0 852.9 690.4 Z" fill="#2f9e63" fill-opacity="0.88" stroke="#1c6b41" stroke-width="1.5"/>
<text x="875.0" y="577.7" font-size="12" font-weight="bold" fill="#ffffff" text-anchor="middle" transform="rotate(6.6 875.0 577.7)">3.17</text>
<line x1="876.1" y1="568.1" x2="882.2" y2="515.4" stroke="#233340" stroke-width="2.6" stroke-linecap="round"/>
<line x1="870.7" y1="567.5" x2="881.6" y2="568.8" stroke="#233340" stroke-width="2.6" stroke-linecap="round"/>
<line x1="875.9" y1="514.7" x2="888.6" y2="516.2" stroke="#233340" stroke-width="2.6" stroke-linecap="round"/>
<text x="881.7" y="520.1" font-size="13" font-weight="bold" fill="#1c6b41" text-anchor="start" transform="rotate(-83.4 881.7 520.1)">Qwen3VL-30B-A3B ±0.52</text>
<path d="M 874.7 693.2 L 898.8 563.0 A 322.45700179268476 322.45700179268476 0 0 1 928.5 569.9 L 892.1 697.3 A 190 190 0 0 0 874.7 693.2 Z" fill="#2f78b8" fill-opacity="0.88" stroke="#1a5182" stroke-width="1.5"/>
<text x="906.0" y="599.2" font-size="12" font-weight="bold" fill="#ffffff" text-anchor="middle" transform="rotate(13.2 906.0 599.2)">3.50</text>
<line x1="909.2" y1="585.3" x2="918.9" y2="544.1" stroke="#233340" stroke-width="2.6" stroke-linecap="round"/>
<line x1="904.1" y1="584.2" x2="914.3" y2="586.6" stroke="#233340" stroke-width="2.6" stroke-linecap="round"/>
<line x1="913.0" y1="542.8" x2="924.7" y2="545.5" stroke="#233340" stroke-width="2.6" stroke-linecap="round"/>
<text x="919.2" y="542.7" font-size="13" font-weight="bold" fill="#1a5182" text-anchor="start" transform="rotate(-76.8 919.2 542.7)">GLM-4.6V-Flash ±0.46</text>
<path d="M 895.9 698.4 L 934.9 571.8 A 322.45700179268476 322.45700179268476 0 0 1 963.6 582.2 L 912.8 704.5 A 190 190 0 0 0 895.9 698.4 Z" fill="#2f9e63" fill-opacity="0.88" stroke="#1c6b41" stroke-width="1.5"/>
<text x="937.8" y="608.6" font-size="12" font-weight="bold" fill="#ffffff" text-anchor="middle" transform="rotate(19.8 937.8 608.6)">3.50</text>
<text x="954.1" y="563.5" font-size="13" font-weight="bold" fill="#1c6b41" text-anchor="start" transform="rotate(-70.2 954.1 563.5)">Gemma4-12B Metal</text>
<path d="M 916.5 706.1 L 969.6 585.2 A 321.9998604374159 321.9998604374159 0 0 1 996.8 598.8 L 932.5 714.0 A 190 190 0 0 0 916.5 706.1 Z" fill="#2f78b8" fill-opacity="0.88" stroke="#1a5182" stroke-width="1.5"/>
<text x="968.2" y="622.1" font-size="12" font-weight="bold" fill="#ffffff" text-anchor="middle" transform="rotate(26.4 968.2 622.1)">3.51</text>
<line x1="970.7" y1="617.1" x2="998.7" y2="560.8" stroke="#233340" stroke-width="2.6" stroke-linecap="round"/>
<line x1="966.1" y1="614.8" x2="975.3" y2="619.4" stroke="#233340" stroke-width="2.6" stroke-linecap="round"/>
<line x1="993.1" y1="558.1" x2="1004.3" y2="563.6" stroke="#233340" stroke-width="2.6" stroke-linecap="round"/>
<text x="994.0" y="570.2" font-size="13" font-weight="bold" fill="#1a5182" text-anchor="start" transform="rotate(-63.6 994.0 570.2)">Qwen3VL-8B (38) ±0.68</text>
<path d="M 936.0 716.0 L 990.3 623.2 A 297.4963731648887 297.4963731648887 0 0 1 1013.8 638.6 L 951.0 725.8 A 190 190 0 0 0 936.0 716.0 Z" fill="#2f78b8" fill-opacity="0.88" stroke="#1a5182" stroke-width="1.5"/>
<text x="983.7" y="659.1" font-size="12" font-weight="bold" fill="#ffffff" text-anchor="middle" transform="rotate(33.0 983.7 659.1)">4.09</text>
<text x="1009.9" y="618.9" font-size="13" font-weight="bold" fill="#1a5182" text-anchor="start" transform="rotate(-57.0 1009.9 618.9)">Gemma4-12B CUDA</text>
<path d="M 954.2 728.2 L 1015.6 646.6 A 292.10357782590376 292.10357782590376 0 0 1 1036.8 664.1 L 968.0 739.6 A 190 190 0 0 0 954.2 728.2 Z" fill="#2f9e63" fill-opacity="0.88" stroke="#1c6b41" stroke-width="1.5"/>
<text x="1004.7" y="681.3" font-size="12" font-weight="bold" fill="#ffffff" text-anchor="middle" transform="rotate(39.7 1004.7 681.3)">4.23</text>
<text x="1035.3" y="644.3" font-size="13" font-weight="bold" fill="#1c6b41" text-anchor="start" transform="rotate(-50.3 1035.3 644.3)">Nemotron-30B-A3B</text>
<path d="M 970.9 742.3 L 1034.9 675.0 A 282.9031209425251 282.9031209425251 0 0 1 1053.4 694.3 L 983.3 755.3 A 190 190 0 0 0 970.9 742.3 Z" fill="#2f78b8" fill-opacity="0.88" stroke="#1a5182" stroke-width="1.5"/>
<text x="1019.8" y="707.9" font-size="12" font-weight="bold" fill="#ffffff" text-anchor="middle" transform="rotate(46.3 1019.8 707.9)">4.48</text>
<line x1="1027.1" y1="700.9" x2="1064.7" y2="665.0" stroke="#233340" stroke-width="2.6" stroke-linecap="round"/>
<line x1="1024.0" y1="697.7" x2="1030.2" y2="704.2" stroke="#233340" stroke-width="2.6" stroke-linecap="round"/>
<line x1="1060.9" y1="661.1" x2="1068.4" y2="669.0" stroke="#233340" stroke-width="2.6" stroke-linecap="round"/>
<text x="1061.7" y="667.8" font-size="13" font-weight="bold" fill="#1a5182" text-anchor="start" transform="rotate(-43.7 1061.7 667.8)">Ministral-3-8B ±0.72</text>
<path d="M 985.9 758.3 L 1037.3 715.4 A 256.8809318340911 256.8809318340911 0 0 1 1051.9 734.8 L 996.7 772.6 A 190 190 0 0 0 985.9 758.3 Z" fill="#2f9e63" fill-opacity="0.88" stroke="#1c6b41" stroke-width="1.5"/>
<text x="1017.7" y="745.5" font-size="12" font-weight="bold" fill="#ffffff" text-anchor="middle" transform="rotate(52.9 1017.7 745.5)">5.27</text>
<text x="1056.0" y="716.5" font-size="13" font-weight="bold" fill="#1c6b41" text-anchor="start" transform="rotate(-37.1 1056.0 716.5)">Qianfan-OCR (32)</text>
<path d="M 998.9 775.9 L 1048.2 743.6 A 248.87528107866146 248.87528107866146 0 0 1 1060.1 763.9 L 1008.0 791.3 A 190 190 0 0 0 998.9 775.9 Z" fill="#2f78b8" fill-opacity="0.88" stroke="#1a5182" stroke-width="1.5"/>
<text x="1025.1" y="770.9" font-size="12" font-weight="bold" fill="#ffffff" text-anchor="middle" transform="rotate(59.5 1025.1 770.9)">5.54</text>
<line x1="1029.4" y1="768.3" x2="1084.9" y2="735.6" stroke="#233340" stroke-width="2.6" stroke-linecap="round"/>
<line x1="1027.4" y1="765.1" x2="1031.3" y2="771.7" stroke="#233340" stroke-width="2.6" stroke-linecap="round"/>
<line x1="1082.4" y1="731.3" x2="1087.4" y2="739.9" stroke="#233340" stroke-width="2.6" stroke-linecap="round"/>
<text x="1075.1" y="741.4" font-size="13" font-weight="bold" fill="#1a5182" text-anchor="start" transform="rotate(-30.5 1075.1 741.4)">Gemma4-E4B naive x3 ±1.10</text>
<path d="M 1009.9 794.9 L 1042.5 778.5 A 226.50666502191208 226.50666502191208 0 0 1 1051.2 798.1 L 1017.1 811.3 A 190 190 0 0 0 1009.9 794.9 Z" fill="#2f78b8" fill-opacity="0.88" stroke="#1a5182" stroke-width="1.5"/>
<text x="1035.6" y="793.3" font-size="12" font-weight="bold" fill="#ffffff" text-anchor="middle" transform="rotate(66.1 1035.6 793.3)">6.37</text>
<line x1="1014.8" y1="802.5" x2="1088.5" y2="769.8" stroke="#233340" stroke-width="2.6" stroke-linecap="round"/>
<line x1="1013.4" y1="799.5" x2="1016.1" y2="805.6" stroke="#233340" stroke-width="2.6" stroke-linecap="round"/>
<line x1="1086.6" y1="765.5" x2="1090.4" y2="774.2" stroke="#233340" stroke-width="2.6" stroke-linecap="round"/>
<text x="1069.0" y="778.5" font-size="13" font-weight="bold" fill="#1a5182" text-anchor="start" transform="rotate(-23.9 1069.0 778.5)">Gemma4-E4B eng x3 ±1.57</text>
<path d="M 1018.5 815.0 L 1018.5 815.0 A 190.0 190.0 0 0 1 1023.9 832.1 L 1023.9 832.1 A 190 190 0 0 0 1018.5 815.0 Z" fill="#2f9e63" fill-opacity="0.88" stroke="#1c6b41" stroke-width="1.5"/>
<text x="1044.3" y="816.3" font-size="12" font-weight="bold" fill="#ffffff" text-anchor="middle" transform="rotate(72.7 1044.3 816.3)">25.53</text>
<text x="1034.8" y="819.3" font-size="13" font-weight="bold" fill="#1c6b41" text-anchor="start" transform="rotate(-17.3 1034.8 819.3)">MiniCPM-V4.6 (36)</text>
<circle cx="840" cy="880" r="118" fill="#dcebfa" stroke="#4a86c2" stroke-width="3"/>
<text x="840" y="854" font-size="19" font-weight="bold" fill="#153c60" text-anchor="middle">Claude Code</text>
<text x="840" y="878" font-size="13" fill="#2c567e" text-anchor="middle">fleet orchestration</text>
<text x="840" y="900" font-size="12" fill="#2c567e" text-anchor="middle">verify · queue · gate ·</text>
<text x="840" y="918" font-size="12" fill="#2c567e" text-anchor="middle">watchdog · score</text>
<rect x="450" y="1010" width="780" height="94" rx="14" fill="#fff3df" stroke="#e3a75c" stroke-width="2.5"/>
<text x="840" y="1042" font-size="17.5" font-weight="bold" fill="#8a4a05" text-anchor="middle">The hand that holds the fan — human direction &amp; ground truth</text>
<text x="840" y="1068" font-size="15" fill="#5c4326" text-anchor="middle">Huilong Fu (Research Lead) · Navid Zobeiry (Supervisor) · Ryan S. Hong (MS Student) — UW MSE</text>
<text x="840" y="1090" font-size="12.5" font-style="italic" fill="#a05b12" text-anchor="middle">benchmark design · private ground truth · policies &amp; approvals · review</text>
<line x1="840" y1="998" x2="840" y2="1010" stroke="#c2711d" stroke-width="4"/>
<text x="40" y="1130" font-size="12.5" fill="#77828c">MAPE on UTS · whiskers = ±1 between-sweep SD (3 sweeps) · partial arms excluded · negative-result arms documented in README · wall-clock never pooled across hosts</text>
</svg>