<svg xmlns="http://www.w3.org/2000/svg" viewBox="0 0 1760 1368" font-family="Helvetica, Arial, sans-serif">
<defs>
<pattern id="hatch-gold" width="8" height="8" patternUnits="userSpaceOnUse" patternTransform="rotate(45)"><rect width="8" height="8" fill="#f0d089"/><rect width="3.4" height="8" fill="#d9a028" fill-opacity="0.75"/></pattern>
<pattern id="hatch-qwen" width="8" height="8" patternUnits="userSpaceOnUse" patternTransform="rotate(45)"><rect width="8" height="8" fill="#aecde9"/><rect width="3.4" height="8" fill="#2f78b8" fill-opacity="0.75"/></pattern>
<pattern id="hatch-gemma" width="8" height="8" patternUnits="userSpaceOnUse" patternTransform="rotate(45)"><rect width="8" height="8" fill="#abd9c0"/><rect width="3.4" height="8" fill="#2f9e63" fill-opacity="0.75"/></pattern>
<pattern id="hatch-rust" width="8" height="8" patternUnits="userSpaceOnUse" patternTransform="rotate(45)"><rect width="8" height="8" fill="#d5baab"/><rect width="3.4" height="8" fill="#96522e" fill-opacity="0.75"/></pattern>
</defs>
<rect width="1760" height="1368" fill="#ffffff"/>
<rect x="0" y="0" width="1760" height="78" fill="#0f2a43"/>
<text x="40" y="36" font-size="28" font-weight="bold" fill="#ffffff">PEEK-Bench v2.3 — The Villain Fan: row F1 (six rogue papers)</text>
<text x="40" y="62" font-size="15.5" fill="#bcd5ea">CF-P11 · P13 · P14 · P18 · P19 · P24 — the papers that carry the benchmark's discrimination · 35 arms · updated 2026-09-08</text>
<path d="M 694.2 1020.5 A 190.0 190.0 0 0 1 1065.8 1020.5" fill="none" stroke="#e3e8ee" stroke-width="1.4" stroke-dasharray="5 6"/>
<text x="1070.8" y="1024.5" font-size="12.5" fill="#9aa7b4">row F1 0.00</text>
<path d="M 565.8 993.2 A 321.2 321.2 0 0 1 1194.2 993.2" fill="none" stroke="#e3e8ee" stroke-width="1.4" stroke-dasharray="5 6"/>
<text x="1199.2" y="997.2" font-size="12.5" fill="#9aa7b4">0.25</text>
<path d="M 437.4 965.9 A 452.5 452.5 0 0 1 1322.6 965.9" fill="none" stroke="#e3e8ee" stroke-width="1.4" stroke-dasharray="5 6"/>
<text x="1327.6" y="969.9" font-size="12.5" fill="#9aa7b4">0.50</text>
<path d="M 309.0 938.6 A 583.8 583.8 0 0 1 1451.0 938.6" fill="none" stroke="#e3e8ee" stroke-width="1.4" stroke-dasharray="5 6"/>
<text x="1456.0" y="942.6" font-size="12.5" fill="#9aa7b4">0.75</text>
<path d="M 232.0 922.3 A 662.5 662.5 0 0 1 1528.0 922.3" fill="none" stroke="#e3e8ee" stroke-width="1.4" stroke-dasharray="5 6"/>
<text x="1533.0" y="926.3" font-size="12.5" fill="#9aa7b4">0.90</text>
<path d="M 180.6 911.3 A 715.0 715.0 0 0 1 1579.4 911.3" fill="none" stroke="#e3e8ee" stroke-width="1.4" stroke-dasharray="5 6"/>
<text x="1584.4" y="915.3" font-size="12.5" fill="#9aa7b4">1.00</text>
<path d="M 697.0 1008.8 L 236.2 879.7 A 668.6 668.6 0 0 1 247.7 842.9 L 700.3 998.3 A 190 190 0 0 0 697.0 1008.8 Z" fill="#2f78b8" fill-opacity="0.88" stroke="#1a5182" stroke-width="1.5"/>
<text x="264.6" y="868.3" font-size="11.5" font-weight="bold" fill="#ffffff" text-anchor="middle" transform="rotate(-72.7 264.6 868.3)">0.912</text>
<line x1="246.9" y1="862.8" x2="236.5" y2="859.6" stroke="#233340" stroke-width="2.6" stroke-linecap="round"/>
<line x1="244.2" y1="871.4" x2="249.6" y2="854.2" stroke="#233340" stroke-width="2.6" stroke-linecap="round"/>
<line x1="233.8" y1="868.2" x2="239.1" y2="851.0" stroke="#233340" stroke-width="2.6" stroke-linecap="round"/>
<text x="221.2" y="854.8" font-size="12" font-weight="bold" fill="#1a5182" text-anchor="end" transform="rotate(17.3 221.2 854.8)">Qwen3.8-27B ±0.010</text>
<path d="M 701.1 996.0 L 253.9 836.0 A 665.0 665.0 0 0 1 267.8 800.3 L 705.1 985.8 A 190 190 0 0 0 701.1 996.0 Z" fill="#d9a028" fill-opacity="0.88" stroke="#9a7217" stroke-width="1.5"/>
<text x="297.8" y="832.6" font-size="11.5" font-weight="bold" fill="#ffffff" text-anchor="middle" transform="rotate(-68.7 297.8 832.6)">0.905</text>
<text x="245.7" y="812.2" font-size="12" font-weight="bold" fill="#9a7217" text-anchor="end" transform="rotate(21.3 245.7 812.2)">Claude API (v1 era)</text>
<path d="M 706.1 983.6 L 281.3 796.9 A 654.0 654.0 0 0 1 297.5 762.8 L 710.8 973.7 A 190 190 0 0 0 706.1 983.6 Z" fill="#2f78b8" fill-opacity="0.88" stroke="#1a5182" stroke-width="1.5"/>
<text x="337.9" y="802.9" font-size="11.5" font-weight="bold" fill="#ffffff" text-anchor="middle" transform="rotate(-64.6 337.9 802.9)">0.884</text>
<line x1="310.2" y1="789.7" x2="268.1" y2="769.7" stroke="#233340" stroke-width="2.6" stroke-linecap="round"/>
<line x1="306.3" y1="797.8" x2="314.1" y2="781.6" stroke="#233340" stroke-width="2.6" stroke-linecap="round"/>
<line x1="264.2" y1="777.9" x2="272.0" y2="761.6" stroke="#233340" stroke-width="2.6" stroke-linecap="round"/>
<text x="253.6" y="762.9" font-size="12" font-weight="bold" fill="#1a5182" text-anchor="end" transform="rotate(25.4 253.6 762.9)">Qwen3VL-30B-A3B ±0.044</text>
<path d="M 711.9 971.5 L 305.7 757.7 A 649.0 649.0 0 0 1 324.1 725.1 L 717.3 961.9 A 190 190 0 0 0 711.9 971.5 Z" fill="#2f78b8" fill-opacity="0.88" stroke="#1a5182" stroke-width="1.5"/>
<text x="335.6" y="753.0" font-size="11.5" font-weight="bold" fill="#ffffff" text-anchor="middle" transform="rotate(-60.6 335.6 753.0)">0.874</text>
<text x="300.7" y="733.4" font-size="12" font-weight="bold" fill="#1a5182" text-anchor="end" transform="rotate(29.4 300.7 733.4)">Qwen3.6-35B Q8_0</text>
<path d="M 718.5 959.9 L 330.6 719.3 A 646.5 646.5 0 0 1 351.2 688.2 L 724.6 950.7 A 190 190 0 0 0 718.5 959.9 Z" fill="#2f78b8" fill-opacity="0.88" stroke="#1a5182" stroke-width="1.5"/>
<text x="374.0" y="725.7" font-size="11.5" font-weight="bold" fill="#ffffff" text-anchor="middle" transform="rotate(-56.5 374.0 725.7)">0.869</text>
<line x1="345.2" y1="706.6" x2="336.1" y2="700.6" stroke="#233340" stroke-width="2.6" stroke-linecap="round"/>
<line x1="340.3" y1="714.2" x2="350.2" y2="699.1" stroke="#233340" stroke-width="2.6" stroke-linecap="round"/>
<line x1="331.1" y1="708.1" x2="341.0" y2="693.1" stroke="#233340" stroke-width="2.6" stroke-linecap="round"/>
<text x="322.7" y="691.8" font-size="12" font-weight="bold" fill="#1a5182" text-anchor="end" transform="rotate(33.5 322.7 691.8)">Qwen3VL-32B ±0.010</text>
<path d="M 726.0 948.7 L 359.4 684.0 A 642.2 642.2 0 0 1 382.0 654.6 L 732.6 940.1 A 190 190 0 0 0 726.0 948.7 Z" fill="#2f9e63" fill-opacity="0.88" stroke="#1c6b41" stroke-width="1.5"/>
<text x="413.3" y="702.0" font-size="11.5" font-weight="bold" fill="#ffffff" text-anchor="middle" transform="rotate(-52.5 413.3 702.0)">0.861</text>
<text x="357.8" y="659.4" font-size="12" font-weight="bold" fill="#1c6b41" text-anchor="end" transform="rotate(37.5 357.8 659.4)">Gemma4-31B dense</text>
<path d="M 734.2 938.2 L 394.8 654.6 A 632.3 632.3 0 0 1 419.0 627.3 L 741.5 930.0 A 190 190 0 0 0 734.2 938.2 Z" fill="#2f9e63" fill-opacity="0.88" stroke="#1c6b41" stroke-width="1.5"/>
<text x="424.7" y="656.7" font-size="11.5" font-weight="bold" fill="#ffffff" text-anchor="middle" transform="rotate(-48.5 424.7 656.7)">0.842</text>
<text x="394.7" y="630.2" font-size="12" font-weight="bold" fill="#1c6b41" text-anchor="end" transform="rotate(41.5 394.7 630.2)">Gemma4-12B CUDA</text>
<path d="M 743.1 928.2 L 424.9 621.7 A 631.9 631.9 0 0 1 450.9 596.2 L 751.0 920.5 A 190 190 0 0 0 743.1 928.2 Z" fill="#2f9e63" fill-opacity="0.88" stroke="#1c6b41" stroke-width="1.5"/>
<text x="465.7" y="637.3" font-size="11.5" font-weight="bold" fill="#ffffff" text-anchor="middle" transform="rotate(-44.4 465.7 637.3)">0.842</text>
<line x1="442.5" y1="613.7" x2="432.8" y2="603.8" stroke="#233340" stroke-width="2.6" stroke-linecap="round"/>
<line x1="436.1" y1="620.0" x2="449.0" y2="607.4" stroke="#233340" stroke-width="2.6" stroke-linecap="round"/>
<line x1="426.4" y1="610.1" x2="439.3" y2="597.5" stroke="#233340" stroke-width="2.6" stroke-linecap="round"/>
<text x="413.2" y="583.8" font-size="12" font-weight="bold" fill="#1c6b41" text-anchor="end" transform="rotate(45.6 413.2 583.8)">Gemma4-26B-A4B MoE ±0.013</text>
<path d="M 752.8 918.9 L 458.1 592.1 A 630.0 630.0 0 0 1 485.8 568.6 L 761.1 911.8 A 190 190 0 0 0 752.8 918.9 Z" fill="#2f78b8" fill-opacity="0.88" stroke="#1a5182" stroke-width="1.5"/>
<text x="506.7" y="621.3" font-size="11.5" font-weight="bold" fill="#ffffff" text-anchor="middle" transform="rotate(-40.4 506.7 621.3)">0.838</text>
<line x1="479.3" y1="588.9" x2="464.3" y2="571.3" stroke="#233340" stroke-width="2.6" stroke-linecap="round"/>
<line x1="472.4" y1="594.8" x2="486.1" y2="583.1" stroke="#233340" stroke-width="2.6" stroke-linecap="round"/>
<line x1="457.4" y1="577.1" x2="471.1" y2="565.5" stroke="#233340" stroke-width="2.6" stroke-linecap="round"/>
<text x="453.9" y="559.1" font-size="12" font-weight="bold" fill="#1a5182" text-anchor="end" transform="rotate(49.6 453.9 559.1)">Qwen3.6-35B-A3B ±0.022</text>
<path d="M 763.0 910.3 L 500.0 573.7 A 617.1 617.1 0 0 1 528.7 552.6 L 771.8 903.8 A 190 190 0 0 0 763.0 910.3 Z" fill="url(#hatch-gold)" stroke="#9a7217" stroke-width="1.5"/>
<text x="528.5" y="582.3" font-size="11.5" font-weight="bold" fill="#9a7217" paint-order="stroke" stroke="#ffffff" stroke-width="3" text-anchor="middle" transform="rotate(-36.4 528.5 582.3)">0.814</text>
<line x1="517.2" y1="567.0" x2="511.3" y2="559.0" stroke="#233340" stroke-width="2.6" stroke-linecap="round"/>
<line x1="509.9" y1="572.3" x2="524.4" y2="561.6" stroke="#233340" stroke-width="2.6" stroke-linecap="round"/>
<line x1="504.0" y1="564.3" x2="518.5" y2="553.6" stroke="#233340" stroke-width="2.6" stroke-linecap="round"/>
<text x="501.8" y="546.1" font-size="12" font-weight="bold" fill="#9a7217" text-anchor="end" transform="rotate(53.6 501.8 546.1)">Opus5 agentic nv ±0.009</text>
<path d="M 773.9 902.4 L 536.8 550.5 A 614.3 614.3 0 0 1 566.7 531.6 L 783.1 896.6 A 190 190 0 0 0 773.9 902.4 Z" fill="url(#hatch-rust)" stroke="#6b3a20" stroke-width="1.5" stroke-dasharray="6 3.5"/>
<text x="573.0" y="574.6" font-size="11.5" font-weight="bold" fill="#6b3a20" paint-order="stroke" stroke="#ffffff" stroke-width="3" text-anchor="middle" transform="rotate(-32.3 573.0 574.6)">0.808</text>
<line x1="554.1" y1="544.8" x2="549.1" y2="536.8" stroke="#233340" stroke-width="2.6" stroke-linecap="round"/>
<line x1="546.5" y1="549.6" x2="561.7" y2="540.0" stroke="#233340" stroke-width="2.6" stroke-linecap="round"/>
<line x1="541.5" y1="541.7" x2="556.7" y2="532.0" stroke="#233340" stroke-width="2.6" stroke-linecap="round"/>
<text x="540.6" y="523.3" font-size="12" font-weight="bold" fill="#6b3a20" text-anchor="end" transform="rotate(57.7 540.6 523.3)">Ministral-3-8B NAIVE (v-only) ±0.009</text>
<path d="M 785.2 895.3 L 575.1 530.2 A 611.3 611.3 0 0 1 606.1 513.5 L 794.9 890.1 A 190 190 0 0 0 785.2 895.3 Z" fill="#2f9e63" fill-opacity="0.88" stroke="#1c6b41" stroke-width="1.5"/>
<text x="616.0" y="569.2" font-size="11.5" font-weight="bold" fill="#ffffff" text-anchor="middle" transform="rotate(-28.3 616.0 569.2)">0.802</text>
<line x1="596.6" y1="533.1" x2="584.3" y2="510.2" stroke="#233340" stroke-width="2.6" stroke-linecap="round"/>
<line x1="588.7" y1="537.4" x2="604.5" y2="528.8" stroke="#233340" stroke-width="2.6" stroke-linecap="round"/>
<line x1="576.4" y1="514.4" x2="592.2" y2="505.9" stroke="#233340" stroke-width="2.6" stroke-linecap="round"/>
<text x="576.7" y="496.1" font-size="12" font-weight="bold" fill="#1c6b41" text-anchor="end" transform="rotate(61.7 576.7 496.1)">Gemma4-12BQAT CUDA ±0.025</text>
<path d="M 797.1 889.1 L 613.4 510.5 A 610.8 610.8 0 0 1 645.5 496.1 L 807.0 884.6 A 190 190 0 0 0 797.1 889.1 Z" fill="url(#hatch-gold)" stroke="#9a7217" stroke-width="1.5"/>
<text x="639.2" y="524.9" font-size="11.5" font-weight="bold" fill="#9a7217" paint-order="stroke" stroke="#ffffff" stroke-width="3" text-anchor="middle" transform="rotate(-24.2 639.2 524.9)">0.801</text>
<line x1="629.5" y1="503.6" x2="629.1" y2="502.6" stroke="#233340" stroke-width="2.6" stroke-linecap="round"/>
<line x1="621.3" y1="507.3" x2="637.7" y2="499.9" stroke="#233340" stroke-width="2.6" stroke-linecap="round"/>
<line x1="620.9" y1="506.2" x2="637.3" y2="498.9" stroke="#233340" stroke-width="2.6" stroke-linecap="round"/>
<text x="622.5" y="488.0" font-size="12" font-weight="bold" fill="#9a7217" text-anchor="end" transform="rotate(65.8 622.5 488.0)">Fable5 agentic naive ±0.001</text>
<path d="M 809.3 883.6 L 655.9 501.0 A 602.2 602.2 0 0 1 688.5 489.0 L 819.6 879.9 A 190 190 0 0 0 809.3 883.6 Z" fill="url(#hatch-gold)" stroke="#9a7217" stroke-width="1.5"/>
<text x="685.9" y="532.3" font-size="11.5" font-weight="bold" fill="#9a7217" paint-order="stroke" stroke="#ffffff" stroke-width="3" text-anchor="middle" transform="rotate(-20.2 685.9 532.3)">0.785</text>
<line x1="674.0" y1="499.9" x2="670.3" y2="489.8" stroke="#233340" stroke-width="2.6" stroke-linecap="round"/>
<line x1="665.5" y1="503.0" x2="682.4" y2="496.7" stroke="#233340" stroke-width="2.6" stroke-linecap="round"/>
<line x1="661.8" y1="492.9" x2="678.7" y2="486.7" stroke="#233340" stroke-width="2.6" stroke-linecap="round"/>
<text x="664.7" y="474.7" font-size="12" font-weight="bold" fill="#9a7217" text-anchor="end" transform="rotate(69.8 664.7 474.7)">Opus4.8 agentic nv ±0.010</text>
<path d="M 821.9 879.1 L 698.2 493.9 A 594.6 594.6 0 0 1 731.1 484.3 L 832.4 876.1 A 190 190 0 0 0 821.9 879.1 Z" fill="#96522e" fill-opacity="0.88" stroke="#6b3a20" stroke-width="1.5"/>
<text x="729.6" y="540.7" font-size="11.5" font-weight="bold" fill="#ffffff" text-anchor="middle" transform="rotate(-16.2 729.6 540.7)">0.771</text>
<text x="710.1" y="473.5" font-size="12" font-weight="bold" fill="#6b3a20" text-anchor="end" transform="rotate(73.8 710.1 473.5)">Muse Glimmer 30B</text>
<path d="M 834.8 875.5 L 741.0 492.7 A 584.1 584.1 0 0 1 773.9 485.6 L 845.5 873.2 A 190 190 0 0 0 834.8 875.5 Z" fill="#2f78b8" fill-opacity="0.88" stroke="#1a5182" stroke-width="1.5"/>
<line x1="766.2" y1="530.1" x2="748.6" y2="447.8" stroke="#233340" stroke-width="2.6" stroke-linecap="round"/>
<line x1="757.4" y1="532.0" x2="775.0" y2="528.2" stroke="#233340" stroke-width="2.6" stroke-linecap="round"/>
<line x1="739.8" y1="449.7" x2="757.4" y2="445.9" stroke="#233340" stroke-width="2.6" stroke-linecap="round"/>
<text x="745.2" y="432.1" font-size="12" font-weight="bold" fill="#1a5182" text-anchor="end" transform="rotate(77.9 745.2 432.1)">Qwen3VL-8B (38) · 0.751 ±0.080</text>
<path d="M 847.9 872.7 L 781.4 484.8 A 583.6 583.6 0 0 1 814.7 480.0 L 858.7 871.2 A 190 190 0 0 0 847.9 872.7 Z" fill="#d9a028" fill-opacity="0.88" stroke="#9a7217" stroke-width="1.5"/>
<text x="801.4" y="505.9" font-size="11.5" font-weight="bold" fill="#ffffff" text-anchor="middle" transform="rotate(-8.1 801.4 505.9)">0.750</text>
<line x1="798.2" y1="483.9" x2="797.7" y2="480.4" stroke="#233340" stroke-width="2.6" stroke-linecap="round"/>
<line x1="789.3" y1="485.2" x2="807.1" y2="482.6" stroke="#233340" stroke-width="2.6" stroke-linecap="round"/>
<line x1="788.8" y1="481.7" x2="806.7" y2="479.1" stroke="#233340" stroke-width="2.6" stroke-linecap="round"/>
<text x="795.5" y="464.6" font-size="12" font-weight="bold" fill="#9a7217" text-anchor="end" transform="rotate(81.9 795.5 464.6)">Fable5 agentic eng ±0.003</text>
<path d="M 861.2 870.9 L 822.3 481.2 A 581.7 581.7 0 0 1 855.8 478.8 L 872.1 870.2 A 190 190 0 0 0 861.2 870.9 Z" fill="#d9a028" fill-opacity="0.88" stroke="#9a7217" stroke-width="1.5"/>
<text x="841.8" y="519.6" font-size="11.5" font-weight="bold" fill="#ffffff" text-anchor="middle" transform="rotate(-4.0 841.8 519.6)">0.746</text>
<line x1="839.3" y1="483.2" x2="838.8" y2="476.3" stroke="#233340" stroke-width="2.6" stroke-linecap="round"/>
<line x1="830.3" y1="483.8" x2="848.2" y2="482.5" stroke="#233340" stroke-width="2.6" stroke-linecap="round"/>
<line x1="829.8" y1="476.9" x2="847.8" y2="475.7" stroke="#233340" stroke-width="2.6" stroke-linecap="round"/>
<text x="837.7" y="460.3" font-size="12" font-weight="bold" fill="#9a7217" text-anchor="end" transform="rotate(86.0 837.7 460.3)">Opus4.8 agentic eng ±0.007</text>
<path d="M 874.5 870.1 L 863.2 478.7 A 581.6 581.6 0 0 1 896.8 478.7 L 885.5 870.1 A 190 190 0 0 0 874.5 870.1 Z" fill="#d9a028" fill-opacity="0.88" stroke="#9a7217" stroke-width="1.5"/>
<text x="880.0" y="532.4" font-size="11.5" font-weight="bold" fill="#9a7217" paint-order="stroke" stroke="#ffffff" stroke-width="3" text-anchor="middle" transform="rotate(0.0 880.0 532.4)">0.746</text>
<line x1="880.0" y1="487.6" x2="880.0" y2="469.2" stroke="#233340" stroke-width="2.6" stroke-linecap="round"/>
<line x1="871.0" y1="487.6" x2="889.0" y2="487.6" stroke="#233340" stroke-width="2.6" stroke-linecap="round"/>
<line x1="871.0" y1="469.2" x2="889.0" y2="469.2" stroke="#233340" stroke-width="2.6" stroke-linecap="round"/>
<text x="880.0" y="441.2" font-size="12" font-weight="bold" fill="#9a7217" text-anchor="start" transform="rotate(-90.0 880.0 441.2)">Opus5 agentic eng ±0.018</text>
<path d="M 887.9 870.2 L 904.2 479.8 A 580.7 580.7 0 0 1 937.6 482.2 L 898.8 870.9 A 190 190 0 0 0 887.9 870.2 Z" fill="#96522e" fill-opacity="0.88" stroke="#6b3a20" stroke-width="1.5"/>
<line x1="919.0" y1="507.6" x2="922.8" y2="454.0" stroke="#233340" stroke-width="2.6" stroke-linecap="round"/>
<line x1="910.0" y1="507.0" x2="928.0" y2="508.2" stroke="#233340" stroke-width="2.6" stroke-linecap="round"/>
<line x1="913.8" y1="453.3" x2="931.8" y2="454.6" stroke="#233340" stroke-width="2.6" stroke-linecap="round"/>
<text x="923.9" y="438.0" font-size="12" font-weight="bold" fill="#6b3a20" text-anchor="start" transform="rotate(-86.0 923.9 438.0)">Ministral-3-8B · 0.744 ±0.051</text>
<path d="M 901.3 871.2 L 944.6 486.4 A 577.3 577.3 0 0 1 977.6 491.0 L 912.1 872.7 A 190 190 0 0 0 901.3 871.2 Z" fill="#2f9e63" fill-opacity="0.88" stroke="#1c6b41" stroke-width="1.5"/>
<text x="957.7" y="512.2" font-size="11.5" font-weight="bold" fill="#ffffff" text-anchor="middle" transform="rotate(8.1 957.7 512.2)">0.738</text>
<text x="963.4" y="472.6" font-size="12" font-weight="bold" fill="#1c6b41" text-anchor="start" transform="rotate(-81.9 963.4 472.6)">Gemma4-12B Metal</text>
<path d="M 914.5 873.2 L 982.7 503.8 A 565.6 565.6 0 0 1 1014.6 510.6 L 925.2 875.5 A 190 190 0 0 0 914.5 873.2 Z" fill="url(#hatch-qwen)" stroke="#1a5182" stroke-width="1.5"/>
<text x="990.3" y="546.1" font-size="11.5" font-weight="bold" fill="#1a5182" paint-order="stroke" stroke="#ffffff" stroke-width="3" text-anchor="middle" transform="rotate(12.1 990.3 546.1)">0.715</text>
<text x="1002.1" y="491.3" font-size="12" font-weight="bold" fill="#1a5182" text-anchor="start" transform="rotate(-77.9 1002.1 491.3)">Qwen3.8-27B NAIVE</text>
<path d="M 927.6 876.1 L 1017.4 528.7 A 548.8 548.8 0 0 1 1047.8 537.5 L 938.1 879.1 A 190 190 0 0 0 927.6 876.1 Z" fill="url(#hatch-qwen)" stroke="#1a5182" stroke-width="1.5"/>
<text x="1021.6" y="571.3" font-size="11.5" font-weight="bold" fill="#1a5182" paint-order="stroke" stroke="#ffffff" stroke-width="3" text-anchor="middle" transform="rotate(16.2 1021.6 571.3)">0.683</text>
<line x1="1029.1" y1="545.4" x2="1036.3" y2="520.4" stroke="#233340" stroke-width="2.6" stroke-linecap="round"/>
<line x1="1020.4" y1="542.9" x2="1037.7" y2="547.9" stroke="#233340" stroke-width="2.6" stroke-linecap="round"/>
<line x1="1027.7" y1="517.9" x2="1045.0" y2="522.9" stroke="#233340" stroke-width="2.6" stroke-linecap="round"/>
<text x="1040.8" y="505.0" font-size="12" font-weight="bold" fill="#1a5182" text-anchor="start" transform="rotate(-73.8 1040.8 505.0)">Qwen3.6-35B NAIVE ±0.025</text>
<path d="M 940.4 879.9 L 1053.9 541.6 A 546.8 546.8 0 0 1 1083.5 552.5 L 950.7 883.6 A 190 190 0 0 0 940.4 879.9 Z" fill="#2f78b8" fill-opacity="0.88" stroke="#1a5182" stroke-width="1.5"/>
<text x="1050.1" y="597.5" font-size="11.5" font-weight="bold" fill="#1a5182" paint-order="stroke" stroke="#ffffff" stroke-width="3" text-anchor="middle" transform="rotate(20.2 1050.1 597.5)">0.680</text>
<line x1="1055.6" y1="582.6" x2="1081.9" y2="511.1" stroke="#233340" stroke-width="2.6" stroke-linecap="round"/>
<line x1="1047.1" y1="579.5" x2="1064.0" y2="585.7" stroke="#233340" stroke-width="2.6" stroke-linecap="round"/>
<line x1="1073.4" y1="508.0" x2="1090.3" y2="514.2" stroke="#233340" stroke-width="2.6" stroke-linecap="round"/>
<text x="1087.4" y="496.1" font-size="12" font-weight="bold" fill="#1a5182" text-anchor="start" transform="rotate(-69.8 1087.4 496.1)">Qwen3.5-9B ±0.073</text>
<path d="M 953.0 884.6 L 1089.0 557.4 A 544.3 544.3 0 0 1 1117.6 570.3 L 962.9 889.1 A 190 190 0 0 0 953.0 884.6 Z" fill="#2f9e63" fill-opacity="0.88" stroke="#1c6b41" stroke-width="1.5"/>
<line x1="1085.1" y1="604.4" x2="1121.7" y2="522.9" stroke="#233340" stroke-width="2.6" stroke-linecap="round"/>
<line x1="1076.9" y1="600.7" x2="1093.3" y2="608.1" stroke="#233340" stroke-width="2.6" stroke-linecap="round"/>
<line x1="1113.5" y1="519.2" x2="1130.0" y2="526.6" stroke="#233340" stroke-width="2.6" stroke-linecap="round"/>
<text x="1128.3" y="508.3" font-size="12" font-weight="bold" fill="#1c6b41" text-anchor="start" transform="rotate(-65.8 1128.3 508.3)">Gemma4-E4B eng x3 · 0.675 ±0.085</text>
<path d="M 965.1 890.1 L 1120.8 579.5 A 537.5 537.5 0 0 1 1148.1 594.1 L 974.8 895.3 A 190 190 0 0 0 965.1 890.1 Z" fill="#96522e" fill-opacity="0.88" stroke="#6b3a20" stroke-width="1.5"/>
<line x1="1106.6" y1="638.7" x2="1162.6" y2="534.5" stroke="#233340" stroke-width="2.6" stroke-linecap="round"/>
<line x1="1098.7" y1="634.4" x2="1114.5" y2="642.9" stroke="#233340" stroke-width="2.6" stroke-linecap="round"/>
<line x1="1154.7" y1="530.3" x2="1170.5" y2="538.8" stroke="#233340" stroke-width="2.6" stroke-linecap="round"/>
<text x="1170.2" y="520.4" font-size="12" font-weight="bold" fill="#6b3a20" text-anchor="start" transform="rotate(-61.7 1170.2 520.4)">GLM-4.6V-Flash · 0.662 ±0.113</text>
<path d="M 976.9 896.6 L 1130.8 637.0 A 491.8 491.8 0 0 1 1154.7 652.1 L 986.1 902.4 A 190 190 0 0 0 976.9 896.6 Z" fill="#96522e" fill-opacity="0.88" stroke="#6b3a20" stroke-width="1.5"/>
<text x="1130.0" y="664.7" font-size="11.5" font-weight="bold" fill="#6b3a20" paint-order="stroke" stroke="#ffffff" stroke-width="3" text-anchor="middle" transform="rotate(32.3 1130.0 664.7)">0.575</text>
<text x="1151.4" y="630.9" font-size="12" font-weight="bold" fill="#6b3a20" text-anchor="start" transform="rotate(-57.7 1151.4 630.9)">InternVL3.5-30B(35)</text>
<path d="M 988.2 903.8 L 1159.9 655.7 A 491.7 491.7 0 0 1 1182.7 672.5 L 997.0 910.3 A 190 190 0 0 0 988.2 903.8 Z" fill="#2f78b8" fill-opacity="0.88" stroke="#1a5182" stroke-width="1.5"/>
<line x1="1144.8" y1="700.2" x2="1198.1" y2="627.7" stroke="#233340" stroke-width="2.6" stroke-linecap="round"/>
<line x1="1137.5" y1="694.9" x2="1152.0" y2="705.6" stroke="#233340" stroke-width="2.6" stroke-linecap="round"/>
<line x1="1190.9" y1="622.4" x2="1205.4" y2="633.1" stroke="#233340" stroke-width="2.6" stroke-linecap="round"/>
<text x="1214.7" y="605.2" font-size="12" font-weight="bold" fill="#1a5182" text-anchor="start" transform="rotate(-53.7 1214.7 605.2)">Qwen3.5-4B · 0.575 ±0.086</text>
<path d="M 998.9 911.8 L 1182.2 683.3 A 482.9 482.9 0 0 1 1203.4 701.4 L 1007.2 918.9 A 190 190 0 0 0 998.9 911.8 Z" fill="#96522e" fill-opacity="0.88" stroke="#6b3a20" stroke-width="1.5"/>
<text x="1177.4" y="710.5" font-size="11.5" font-weight="bold" fill="#6b3a20" paint-order="stroke" stroke="#ffffff" stroke-width="3" text-anchor="middle" transform="rotate(40.4 1177.4 710.5)">0.558</text>
<text x="1203.3" y="680.0" font-size="12" font-weight="bold" fill="#6b3a20" text-anchor="start" transform="rotate(-49.6 1203.3 680.0)">Agents-A1-35B</text>
<path d="M 1009.0 920.5 L 1206.7 706.9 A 481.0 481.0 0 0 1 1226.5 726.3 L 1016.9 928.2 A 190 190 0 0 0 1009.0 920.5 Z" fill="url(#hatch-qwen)" stroke="#1a5182" stroke-width="1.5" stroke-dasharray="6 3.5"/>
<text x="1178.9" y="755.1" font-size="11.5" font-weight="bold" fill="#1a5182" paint-order="stroke" stroke="#ffffff" stroke-width="3" text-anchor="middle" transform="rotate(44.4 1178.9 755.1)">0.554</text>
<line x1="1195.0" y1="738.7" x2="1238.5" y2="694.3" stroke="#233340" stroke-width="2.6" stroke-linecap="round"/>
<line x1="1188.5" y1="732.4" x2="1201.4" y2="745.0" stroke="#233340" stroke-width="2.6" stroke-linecap="round"/>
<line x1="1232.0" y1="688.0" x2="1244.9" y2="700.6" stroke="#233340" stroke-width="2.6" stroke-linecap="round"/>
<text x="1249.7" y="682.9" font-size="12" font-weight="bold" fill="#1a5182" text-anchor="start" transform="rotate(-45.6 1249.7 682.9)">Qwen3.5-9B NAIVE (v-only) ±0.059</text>
<path d="M 1018.5 930.0 L 1224.0 737.2 A 471.7 471.7 0 0 1 1242.0 757.5 L 1025.8 938.2 A 190 190 0 0 0 1018.5 930.0 Z" fill="#96522e" fill-opacity="0.88" stroke="#6b3a20" stroke-width="1.5"/>
<text x="1215.2" y="763.1" font-size="11.5" font-weight="bold" fill="#6b3a20" paint-order="stroke" stroke="#ffffff" stroke-width="3" text-anchor="middle" transform="rotate(48.5 1215.2 763.1)">0.537</text>
<text x="1245.1" y="736.6" font-size="12" font-weight="bold" fill="#6b3a20" text-anchor="start" transform="rotate(-41.5 1245.1 736.6)">Nemotron-30B-A3B</text>
<path d="M 1027.4 940.1 L 1188.9 808.5 A 398.3 398.3 0 0 1 1202.9 826.7 L 1034.0 948.7 A 190 190 0 0 0 1027.4 940.1 Z" fill="url(#hatch-rust)" stroke="#6b3a20" stroke-width="1.5" stroke-dasharray="6 3.5"/>
<text x="1177.0" y="832.1" font-size="11.5" font-weight="bold" fill="#6b3a20" paint-order="stroke" stroke="#ffffff" stroke-width="3" text-anchor="middle" transform="rotate(52.5 1177.0 832.1)">0.397</text>
<line x1="1191.3" y1="821.2" x2="1200.8" y2="813.9" stroke="#233340" stroke-width="2.6" stroke-linecap="round"/>
<line x1="1185.8" y1="814.0" x2="1196.8" y2="828.3" stroke="#233340" stroke-width="2.6" stroke-linecap="round"/>
<line x1="1195.3" y1="806.8" x2="1206.3" y2="821.0" stroke="#233340" stroke-width="2.6" stroke-linecap="round"/>
<text x="1213.5" y="804.2" font-size="12" font-weight="bold" fill="#6b3a20" text-anchor="start" transform="rotate(-37.5 1213.5 804.2)">GLM-4.6V NAIVE (v-only) ±0.011</text>
<path d="M 1035.4 950.7 L 1175.7 852.1 A 361.4 361.4 0 0 1 1187.2 869.5 L 1041.5 959.9 A 190 190 0 0 0 1035.4 950.7 Z" fill="url(#hatch-gemma)" stroke="#1c6b41" stroke-width="1.5"/>
<line x1="1172.0" y1="867.0" x2="1191.1" y2="854.5" stroke="#233340" stroke-width="2.6" stroke-linecap="round"/>
<line x1="1167.1" y1="859.5" x2="1177.0" y2="874.5" stroke="#233340" stroke-width="2.6" stroke-linecap="round"/>
<line x1="1186.1" y1="847.0" x2="1196.0" y2="862.0" stroke="#233340" stroke-width="2.6" stroke-linecap="round"/>
<text x="1204.4" y="845.6" font-size="12" font-weight="bold" fill="#1c6b41" text-anchor="start" transform="rotate(-33.5 1204.4 845.6)">Gemma4-E4B naive x3 · 0.327 ±0.022</text>
<path d="M 1042.7 961.9 L 1181.7 878.2 A 352.3 352.3 0 0 1 1191.7 895.9 L 1048.1 971.5 A 190 190 0 0 0 1042.7 961.9 Z" fill="#96522e" fill-opacity="0.88" stroke="#6b3a20" stroke-width="1.5"/>
<text x="1200.8" y="879.1" font-size="12" font-weight="bold" fill="#6b3a20" text-anchor="start" transform="rotate(-29.4 1200.8 879.1)">Qianfan-OCR (32) · 0.309</text>
<path d="M 1049.2 973.7 L 1183.4 905.2 A 340.6 340.6 0 0 1 1191.9 922.9 L 1053.9 983.6 A 190 190 0 0 0 1049.2 973.7 Z" fill="#96522e" fill-opacity="0.88" stroke="#6b3a20" stroke-width="1.5"/>
<text x="1202.2" y="907.1" font-size="12" font-weight="bold" fill="#6b3a20" text-anchor="start" transform="rotate(-25.4 1202.2 907.1)">MiniCPM-V4.6 (36) · 0.287</text>
<path d="M 1054.9 985.8 L 1066.0 981.1 A 202.0 202.0 0 0 1 1070.2 992.0 L 1058.9 996.0 A 190 190 0 0 0 1054.9 985.8 Z" fill="#d7dce1" fill-opacity="0.9" stroke="#8a939c" stroke-width="1.5"/>
<text x="1083.1" y="980.7" font-size="12" font-weight="bold" fill="#7c8690" font-style="italic" text-anchor="start" transform="rotate(-21.3 1083.1 980.7)">EXAONE-4.5-33B — no protocol drive</text>
<path d="M 1059.7 998.3 L 1071.0 994.4 A 202.0 202.0 0 0 1 1074.5 1005.5 L 1063.0 1008.8 A 190 190 0 0 0 1059.7 998.3 Z" fill="#d7dce1" fill-opacity="0.9" stroke="#8a939c" stroke-width="1.5"/>
<text x="1088.1" y="995.2" font-size="12" font-weight="bold" fill="#7c8690" font-style="italic" text-anchor="start" transform="rotate(-17.3 1088.1 995.2)">Fara1.5-9B — no protocol drive</text>
<circle cx="880" cy="1060" r="118" fill="#dcebfa" stroke="#4a86c2" stroke-width="3"/>
<text x="880" y="1034" font-size="19" font-weight="bold" fill="#153c60" text-anchor="middle">Claude Code</text>
<text x="880" y="1058" font-size="13" fill="#2c567e" text-anchor="middle">fleet orchestration</text>
<text x="880" y="1080" font-size="12" fill="#2c567e" text-anchor="middle">verify · queue · gate ·</text>
<text x="880" y="1098" font-size="12" fill="#2c567e" text-anchor="middle">watchdog · score</text>
<line x1="880" y1="1178" x2="880" y2="1190" stroke="#c2711d" stroke-width="4"/>
<rect x="490" y="1190" width="780" height="94" rx="14" fill="#fff3df" stroke="#e3a75c" stroke-width="2.5"/>
<text x="880" y="1222" font-size="17.5" font-weight="bold" fill="#8a4a05" text-anchor="middle">The hand that holds the fan — human direction &amp; ground truth</text>
<text x="880" y="1248" font-size="15" fill="#5c4326" text-anchor="middle">Huilong Fu (Research Lead) · Navid Zobeiry (Supervisor) · Ryan S. Hong (MS Student) — UW MSE</text>
<text x="880" y="1270" font-size="12.5" font-style="italic" fill="#a05b12" text-anchor="middle">benchmark design · private ground truth · policies &amp; approvals · review</text>
<rect x="40" y="112" width="20" height="13" rx="2" fill="#d9a028" stroke="#9a7217" stroke-width="1.2"/>
<text x="68" y="123" font-size="12.5" fill="#233340">Claude API arms (agentic + v1 era)</text>
<rect x="40" y="138" width="20" height="13" rx="2" fill="#2f78b8" stroke="#1a5182" stroke-width="1.2"/>
<text x="68" y="149" font-size="12.5" fill="#233340">Qwen family (local)</text>
<rect x="40" y="164" width="20" height="13" rx="2" fill="#2f9e63" stroke="#1c6b41" stroke-width="1.2"/>
<text x="68" y="175" font-size="12.5" fill="#233340">Gemma family (local)</text>
<rect x="40" y="190" width="20" height="13" rx="2" fill="#96522e" stroke="#6b3a20" stroke-width="1.2"/>
<text x="68" y="201" font-size="12.5" fill="#233340">other local models</text>
<rect x="330" y="112" width="20" height="13" rx="2" fill="url(#hatch-qwen)" stroke="#1a5182" stroke-width="1.2"/>
<text x="358" y="123" font-size="12.5" fill="#233340">hatched = NAIVE-prompt arm</text>
<rect x="330" y="138" width="20" height="13" rx="2" fill="#d7dce1" stroke="#8a939c" stroke-width="1.2"/>
<text x="358" y="149" font-size="12.5" fill="#233340" font-style="italic">gray stub = negative result</text>
<line x1="332" y1="170" x2="350" y2="170" stroke="#233340" stroke-width="2.6" stroke-linecap="round"/>
<line x1="332" y1="165" x2="332" y2="175" stroke="#233340" stroke-width="2.6" stroke-linecap="round"/>
<line x1="350" y1="165" x2="350" y2="175" stroke="#233340" stroke-width="2.6" stroke-linecap="round"/>
<text x="358" y="175" font-size="12.5" fill="#233340">±1 between-sweep SD (multi-sweep arms)</text>
<rect x="330" y="190" width="20" height="13" rx="2" fill="url(#hatch-rust)" stroke="#6b3a20" stroke-width="1.2" stroke-dasharray="3 2"/>
<text x="358" y="201" font-size="12.5" fill="#233340">dashed outline = villain-only arm (v-only)</text>
<text x="1720" y="118" font-size="12.5" fill="#77828c" text-anchor="end">longer blade → higher row F1 (linear scale, 0 → 1; ties broken by recall)</text>
<text x="1720" y="136" font-size="12.5" fill="#77828c" text-anchor="end">blades sorted best → worst, left → right</text>
<text x="40" y="1310" font-size="12.5" fill="#77828c">villain metrics = six-paper subsets of complete full sweeps pooled with dedicated villain-only sweeps (same paper mix); never pooled into the full-13 leaderboard · (v-only) arms exist only as villain sweeps (no full-13 counterpart)</text>
<text x="40" y="1330" font-size="12.5" fill="#77828c">row F1 on the six rogue papers · whiskers = ±1 between-sweep SD (multi-sweep arms) · gray stubs = negative results, not scored (EXAONE-4.5-33B &amp; Fara1.5-9B: no protocol drive)</text>
</svg>
